<svg width="85" height="85" viewBox="0 0 85 85" fill="none" xmlns="http://www.w3.org/2000/svg">
<g clip-path="url(#clip0_1190_9586)">
<rect width="80.4109" height="80.4109" rx="40.2054" transform="matrix(-1 0 0 1 82.4102 2)" fill="#5AC279"/>
<path fill-rule="evenodd" clip-rule="evenodd" d="M35.7766 56.7378C38.2434 54.8587 44.4364 54.0136 47.0692 55.823C49.6696 57.6399 49.953 60.5782 51.1648 63.2812C52.3081 62.7418 54.1962 63.5143 54.5276 64.5755C54.9387 65.0761 54.9572 66.4824 55.2407 67.1553C67.5764 69.1196 69.4491 78.7406 70.9339 89.6631C72.8981 100.747 77.3572 111.806 75.4214 123.211C75.6736 123.576 75.8725 123.931 76.0564 124.353C76.497 125.103 75.9294 126.164 75.0408 126.123C73.8905 126.022 72.7515 125.884 71.5959 125.841C68.3921 125.73 65.1854 125.743 61.9805 125.784L61.5434 125.789C45.3913 125.99 29.2401 126.387 13.0873 126.492C12.5013 126.493 12.2144 125.967 12.2927 125.448C12.4503 124.404 12.5965 123.36 12.7491 122.315C8.92852 123.324 4.86693 123.578 1.05718 122.421C0.790662 122.149 1.67815 122.297 1.81895 122.255C-1.68722 119.859 -0.640146 114.809 -0.329561 111.173C1.6017 98.7114 2.28253 84.9238 9.74425 74.2903C12.9723 69.9508 17.7049 66.515 23.1431 65.742L23.2939 65.7213C24.884 65.5092 26.6562 65.4409 28.0465 64.5755C29.6101 63.3268 30.2764 61.0194 31.9214 60.9978C32.4646 60.9907 33.2036 61.6781 33.9987 62.1449C34.0581 61.1181 34.6112 60.2516 34.7333 59.4555L34.7432 59.3875C34.8706 58.4593 34.6961 57.6243 35.7766 56.7378ZM62.287 89.9923C58.8203 87.5831 49.8652 88.7936 49.6602 88.9285C49.2088 89.2255 49.0145 89.2518 48.7703 89.6375C48.5293 89.6695 48.2885 89.7026 48.0478 89.7368C47.5651 89.8946 47.9228 90.4886 48.4804 90.2767C48.145 91.7237 49.1321 92.7527 49.525 94.1832C49.6526 94.6477 49.5296 95.4831 49.525 95.9577C49.5631 96.5628 50.2319 97.2775 50.1204 97.8846C49.7242 100.043 47.5738 102.148 48.4804 104.241C49.081 105.423 50.8874 106.026 52.0883 106.428C54.5765 107.383 58.9119 106.392 60.3576 104.241C61.1287 103.094 62.0221 100.2 62.4819 99.3025L62.5838 97.8786C62.8351 94.339 63.0587 90.5286 62.287 89.9923Z" fill="white"/>
<path fill-rule="evenodd" clip-rule="evenodd" d="M31.3172 60.7891C31.5566 60.577 31.9107 60.8435 31.7586 61.1299C31.4169 61.7736 31.0663 62.3835 30.6076 62.9525C30.3295 63.2975 30.0316 63.6238 29.7297 63.9465C30.5045 64.617 31.1689 65.4495 31.7964 66.2296C32.5987 67.2274 33.3573 68.2675 34.258 69.1805C35.1462 70.081 36.1284 70.7104 37.316 71.1302L37.5558 71.2135C38.7488 71.6325 40.0239 72.1983 40.6963 73.3283C40.8289 73.5511 40.5619 73.8264 40.3375 73.6874C39.169 72.9636 37.796 72.818 36.5241 72.3398C35.2955 71.8778 34.2244 71.1668 33.2781 70.2594C32.3333 69.3535 31.5401 68.3228 30.7126 67.3139C29.8944 66.3163 29.0134 65.4643 28.0456 64.6202C26.5521 65.6253 24.8473 66.0627 23.1138 66.4923L22.9246 66.5391C21.189 66.969 19.4627 67.4682 17.8344 68.2168C16.3988 68.8767 14.9868 69.6648 13.8174 70.7387C12.576 71.8783 11.6099 73.3339 10.7256 74.7573C8.74759 77.942 7.35695 81.4309 6.1327 84.9623C4.85938 88.6353 3.79432 92.382 2.93452 96.1732C2.49722 98.1016 2.14207 100.044 1.85017 101.999C1.70967 102.941 1.58485 103.885 1.47523 104.831C1.35821 105.841 1.33133 106.881 1.02154 107.852C0.888737 108.268 0.575155 108.441 0.261272 108.426L0.197519 109.224C0.112979 110.287 0.0341699 111.351 0.0075484 112.421C-0.0366123 114.201 -0.0165891 115.975 0.111345 117.75L0.129464 117.992C0.229994 119.288 0.454638 120.744 1.42866 121.693C2.43736 122.676 3.98859 122.985 5.34814 123.002C8.51465 123.044 11.5627 121.547 14.3648 120.234C17.2506 118.882 20.0575 117.38 22.7972 115.753C24.1925 114.924 25.5726 114.067 26.9352 113.185C27.6038 112.752 28.2677 112.312 28.9267 111.865C29.3041 111.609 29.6618 111.328 30.046 111.101C29.8577 110.926 29.7737 110.65 29.9314 110.409C28.8207 109.445 28.3584 107.724 28.3043 106.331C28.2606 105.207 28.426 104.086 28.5565 102.972C28.6224 102.411 28.7037 101.85 28.7882 101.291C28.8216 101.07 28.847 100.834 28.886 100.601C25.8868 102.25 22.8035 103.718 19.6386 105.023C18.0164 105.691 16.3733 106.293 14.7076 106.843L14.3699 106.955C12.7916 107.471 11.1756 107.96 9.54393 108.255C9.45669 108.271 9.38584 108.142 9.47898 108.101C11.0691 107.399 12.7142 106.807 14.3282 106.161L14.5934 106.053V106.053C14.563 106.051 14.5314 106.047 14.4984 106.039C13.5519 105.81 12.6127 105.458 11.6843 105.162C10.8227 104.886 9.85472 104.713 9.04938 104.298C8.98742 104.266 9.0221 104.18 9.08245 104.176C9.98763 104.113 10.9702 104.377 11.8577 104.532L12.1911 104.591C12.7496 104.689 13.3205 104.795 13.8763 104.933C13.8964 104.747 14.0004 104.56 14.1484 104.45C15.777 103.244 15.6116 100.807 15.7858 99.0098L15.915 97.6757C16.1421 95.3409 16.3825 93.0064 16.7476 90.689C16.7671 90.5653 16.9585 90.6008 16.9593 90.7176C16.9781 93.5902 16.7614 96.4496 16.6527 99.3177L16.6359 99.7882C16.5758 101.558 16.5287 103.396 15.4146 104.757C15.5704 104.666 15.781 104.666 15.9072 104.816C16.0623 105.001 16.1518 105.208 16.1491 105.412C17.1559 104.99 18.1583 104.556 19.1558 104.114C22.3628 102.693 25.5027 101.102 28.5594 99.3812C28.8884 99.196 29.2011 99.3415 29.3638 99.5857L29.3873 99.5824C29.3912 99.5818 29.3952 99.5814 29.3993 99.5813L29.4225 99.5803C29.4234 99.5803 29.4243 99.5804 29.4251 99.5804C29.8554 99.3439 30.4416 99.5124 30.8109 99.8574C30.8218 99.8678 30.8311 99.879 30.8408 99.8899C31.3082 99.68 31.7447 99.3966 32.1409 99.0374C32.9515 98.3024 33.6381 97.3936 34.2367 96.4823C35.339 94.8038 36.2754 92.9372 37.7645 91.5556C38.9743 90.433 40.4743 89.7341 42.0479 89.2953C42.0413 89.2494 42.0589 89.2004 42.0907 89.1678C42.1715 89.0849 42.2292 89.0562 42.3336 89.1065C42.3419 89.1106 42.3469 89.1162 42.3503 89.1222L42.5038 88.8597C42.5876 88.7173 42.6737 88.5739 42.7035 88.5362C42.8822 88.3111 43.0661 88.0878 43.2528 87.8692C43.5692 87.499 43.9299 87.1337 44.3475 86.877C45.2619 86.3151 46.2231 86.6331 47.1631 86.9402C47.7311 87.1258 48.2973 87.3174 48.8643 87.5059L48.9227 87.525C49.3455 87.6609 49.8403 87.7798 50.0293 88.2279C50.1042 88.4052 50.1158 88.5893 50.0809 88.7678C54.0965 87.7462 58.5566 88.2156 62.4752 89.4148C62.6256 89.4608 62.7758 89.5846 62.8075 89.7471C63.2565 92.0505 63.4564 94.4127 63.2533 96.7554C63.078 98.7776 62.6301 100.759 61.7861 102.611L61.7381 102.715C60.9449 104.431 59.6877 106.546 57.7678 107.084C56.6085 107.408 55.3263 107.217 54.1439 107.157C52.9948 107.1 51.8202 107.091 50.682 106.91C49.6683 106.749 48.7801 106.295 48.1537 105.47C47.6132 104.759 47.3286 103.899 47.0955 103.044C46.9888 103.078 46.8827 103.114 46.7784 103.155C46.338 103.327 45.9649 103.605 45.6275 103.932C44.9151 104.622 44.3625 105.46 43.6171 106.119C42.9424 106.715 42.1735 107.178 41.3488 107.535C39.6398 108.274 37.8065 108.569 35.9988 108.96L35.8728 108.988C34.5119 109.287 33.1229 109.653 31.9217 110.362C31.8982 110.571 31.8032 110.767 31.6509 110.896C31.8628 111.095 31.9525 111.41 31.7663 111.706C31.2463 112.531 30.3506 113.001 29.5464 113.529L29.4941 113.563C28.703 114.088 27.9051 114.602 27.1007 115.106C25.4653 116.13 23.7957 117.098 22.1026 118.024C19.3794 119.512 16.5977 120.916 13.7657 122.189C13.9357 123.026 13.8736 123.888 14.0013 124.731L14.0209 124.851C14.0755 125.163 14.0018 125.425 13.7866 125.629L13.7638 125.65L13.7642 125.647L13.744 125.666L13.7373 125.671L13.7395 125.669C13.7147 125.692 13.6891 125.713 13.663 125.731L13.6298 125.753V125.753C13.4225 125.879 13.1557 125.877 12.9434 125.766L12.9192 125.753L12.8784 125.729C12.598 125.568 12.4046 125.168 12.521 124.851C12.8069 124.07 12.9149 123.237 13.1789 122.451L12.9695 122.545V122.545L12.6934 122.665C9.70767 123.957 6.39114 125.045 3.13798 124.164C1.70057 123.775 0.357106 122.952 -0.362095 121.61C-1.0698 120.29 -1.16983 118.757 -1.20741 117.288C-1.25378 115.476 -1.15664 113.636 -0.91771 111.839C-0.757321 110.632 -0.563356 109.403 -0.264163 108.21C-0.418056 108.074 -0.531178 107.879 -0.561057 107.638C-0.702259 106.497 -0.455131 105.312 -0.303836 104.178C-0.156038 103.07 0.00724863 101.965 0.191921 100.863C0.564762 98.638 0.997961 96.4175 1.50231 94.2184C2.39989 90.3044 3.58517 86.4601 5.01218 82.7076L5.13714 82.3808C6.45578 78.9509 7.98255 75.5942 10.1085 72.5811C11.1255 71.1395 12.2006 69.8325 13.6376 68.7937C14.9839 67.8204 16.5024 67.1197 18.0695 66.584C19.6383 66.048 21.2508 65.6888 22.8918 65.4654C24.5583 65.2384 26.3174 65.0993 27.872 64.4155C27.6754 64.0628 27.8441 63.5866 28.1751 63.3679C29.2889 62.6317 30.3189 61.674 31.3172 60.7891ZM66.9732 92.8015C67.0198 92.7306 67.1307 92.7754 67.1102 92.8593C66.5684 95.0795 66.0599 97.3043 65.7278 99.5669C65.1284 103.651 65.2386 107.788 65.2876 111.902L65.2901 112.114C65.3153 114.33 65.3503 116.546 65.4235 118.761C65.4605 119.881 65.5336 121.011 65.4939 122.131C65.4722 122.739 65.3103 123.314 65.2529 123.914C65.2027 124.439 65.2474 124.972 65.2725 125.498C65.2893 125.847 64.7737 125.832 64.7386 125.498L64.6937 125.065C64.6355 124.517 64.5635 123.973 64.384 123.449C64.1683 122.818 64.0648 122.199 63.9899 121.537C63.8753 120.523 63.8243 119.498 63.78 118.476L63.7498 117.77C63.565 113.501 63.5715 109.211 63.8706 104.947L63.8925 104.642C64.1887 100.611 64.7026 96.2555 66.9732 92.8015ZM55.4259 67.3946C55.2844 67.3364 55.334 67.1224 55.4907 67.1596L55.7756 67.2276C57.8636 67.728 59.9137 68.27 61.8626 69.201C63.8128 70.1325 65.4639 71.5232 66.7757 73.2333C69.326 76.5574 70.3857 80.5972 71.2224 84.6332C72.1521 89.1179 72.9986 93.6191 73.9365 98.1024L74.1106 98.9375C74.9784 103.113 75.7978 107.291 76.4015 111.516L76.4448 111.823C77.0536 116.168 77.4198 120.663 76.7555 125.019C76.6241 125.881 75.1905 125.666 75.2466 124.815C75.4085 122.353 75.5244 119.905 75.4124 117.438C75.3002 114.97 75.0689 112.513 74.724 110.067C74.4338 108.009 74.0012 105.976 73.6183 103.934L73.5583 103.612C73.2378 101.875 72.9073 100.14 72.5775 98.4045L72.0847 95.8065C71.3461 91.9163 70.5931 88.0228 69.7422 84.1571L69.6917 83.9296C68.859 80.2106 67.6313 76.3148 65.1336 73.3615C62.5988 70.3643 58.9703 68.8548 55.4259 67.3946ZM46.2154 106.842C46.2763 106.707 46.4896 106.721 46.5551 106.842C46.812 107.317 46.8405 107.922 46.8891 108.457L46.8942 108.512C46.9559 109.165 47.0106 109.82 47.0441 110.476C47.1075 111.719 47.1379 112.961 47.134 114.206C47.13 115.482 47.1043 116.757 47.0356 118.031L47.0169 118.372C46.9542 119.48 46.8489 120.715 46.323 121.682C46.1318 122.034 45.6119 121.931 45.5012 121.575C45.1384 120.41 45.3247 119.028 45.4177 117.835L45.49 116.904C45.5615 115.972 45.6297 115.041 45.6838 114.108C45.758 112.832 45.8191 111.556 45.878 110.279C45.8971 109.865 45.9178 109.45 45.9396 109.036L45.9732 108.414C46.0019 107.894 45.9995 107.323 46.2154 106.842ZM5.42892 108.494L5.58951 108.339C6.08246 107.856 6.70541 107.113 7.43416 107.159C7.72476 107.177 7.90993 107.419 7.84967 107.705C7.72096 108.316 7.09749 108.633 6.64871 109.007C6.15705 109.415 5.69367 109.852 5.23119 110.294C4.82089 110.685 4.42631 111.087 4.0412 111.502L3.89721 111.658C3.75917 111.809 2.77614 112.698 2.88242 112.929L2.88821 112.939C2.91779 112.984 2.86853 113.044 2.81946 113.029C2.39495 112.895 2.42144 112.531 2.58192 112.162C2.89031 111.453 3.43034 110.798 3.90191 110.193C4.37221 109.589 4.88124 109.027 5.42892 108.494V108.494ZM47.7536 90.7239C47.4254 89.9478 46.2161 89.964 45.5296 90.0104C43.8008 90.1273 41.9303 90.5649 40.392 91.3732C38.7973 92.2113 37.7231 93.5541 36.7619 95.0389L36.7169 95.1086C35.78 96.5654 34.8778 98.29 33.4108 99.2917C32.6636 99.8021 31.7911 100.268 30.8845 100.47C30.8223 100.579 30.7214 100.666 30.5892 100.697L30.5278 100.712C30.2696 100.769 29.8684 100.832 29.522 100.794C29.5243 100.964 29.5225 101.132 29.5268 101.292C29.539 101.753 29.5442 102.215 29.5442 102.676C29.5444 103.641 29.4925 104.608 29.5328 105.573C29.5684 106.427 29.689 107.319 30.0987 108.082C30.3992 108.642 30.7958 109.012 31.2746 109.366C32.4523 108.648 33.7841 108.21 35.1358 107.881C36.7705 107.483 38.4442 107.217 40.0417 106.678C40.8106 106.418 41.5497 106.078 42.2195 105.616C42.9303 105.126 43.4732 104.462 44.0318 103.814L44.1191 103.713C44.6892 103.059 45.3113 102.433 46.117 102.078C46.8108 101.773 47.7253 101.718 48.3319 101.246C48.6491 100.998 48.6757 100.639 48.7091 100.272C48.3205 100.328 47.9092 100.238 47.522 100.193L47.3214 100.169C46.9552 100.126 46.5975 100.078 46.237 99.9849C46.17 99.9676 46.17 99.8666 46.237 99.8494C46.663 99.7393 47.0852 99.6924 47.522 99.6412L47.6246 99.6284C48.0197 99.5766 48.4351 99.4983 48.8227 99.5853C48.8923 99.3206 48.9927 99.0679 49.1336 98.8148C49.3313 98.4592 49.7056 98.056 49.7562 97.6406C49.7712 97.5166 49.7424 97.3703 49.6839 97.2606L49.6638 97.2233C49.6392 97.1791 49.6101 97.1347 49.5675 97.1072C49.5628 97.1127 49.5528 97.119 49.5311 97.1258C49.2328 97.2197 48.9726 97.0737 48.8345 96.8486C48.2482 96.9213 47.6083 96.8968 47.0585 96.9211L46.5026 96.948C45.9086 96.9753 45.2876 96.9872 44.7294 96.8672C44.6515 96.8505 44.6279 96.7207 44.706 96.6873C45.3922 96.3937 46.2246 96.3 46.9593 96.1873C47.3696 96.1242 47.7829 96.0762 48.1944 96.0207C48.4684 95.9837 48.7592 95.9226 49.0431 95.9079C49.755 95.0215 49.3714 93.6231 48.3808 93.2415C48.02 93.4001 47.6955 93.3078 47.3013 93.2739C46.9077 93.2402 46.5132 93.2173 46.1181 93.219C45.3263 93.2225 44.4873 93.4308 43.7032 93.3411C43.5757 93.3264 43.4572 93.1567 43.584 93.0531C44.1842 92.5632 45.0443 92.4034 45.8062 92.299L45.9641 92.2778C46.2195 92.2444 46.5301 92.1955 46.8523 92.1664C46.9251 92.0242 47.0558 91.9168 47.2522 91.8901C47.3105 91.8821 47.3692 91.8774 47.4278 91.8724L47.4269 91.8666V91.8666C47.9057 91.8436 47.8849 91.0344 47.7536 90.7239ZM14.9698 105.862C14.9613 105.875 14.952 105.888 14.9421 105.9L14.9268 105.917L15.006 105.885L14.9698 105.862V105.862ZM56.1102 88.9895C54.0946 88.7728 52.0761 88.8185 50.0545 88.8767C49.8928 89.4058 49.33 89.8566 48.7847 89.8736C49.2118 90.5239 49.2559 91.4041 48.9564 92.0937C49.5922 92.347 50.1401 92.8018 50.4726 93.4496C50.9338 94.3477 50.8734 95.347 50.4177 96.1769C50.8067 96.5292 51.0362 97.1013 51.0132 97.6406C50.9876 98.2419 50.6293 98.7555 50.3316 99.2534C50.0099 99.7918 49.9992 100.266 49.9003 100.869C49.7557 101.751 49.1607 102.287 48.3952 102.621L48.4359 102.781C48.6332 103.55 48.8788 104.361 49.4429 104.923C50.1686 105.646 51.2944 105.639 52.2532 105.685L52.2995 105.687C53.1774 105.731 54.055 105.782 54.9326 105.832L55.5909 105.869C56.6014 105.925 57.5718 105.931 58.3967 105.263C59.7435 104.172 60.6668 102.367 61.2512 100.769C62.4777 97.4139 62.4924 93.7326 61.9294 90.2388C60.0412 89.63 58.0821 89.2014 56.1102 88.9895ZM39.3481 94.5551L39.3629 94.5562C39.7779 94.6036 40.063 94.9398 40.1646 95.3385C40.312 95.9182 40.2397 96.4422 40.5946 96.9654C40.9596 97.5035 41.184 97.9343 41.2371 98.599C41.2589 98.8725 41.2489 99.1453 41.3098 99.413L41.3539 99.6006C41.4007 99.8006 41.4391 99.9932 41.4158 100.208C41.3945 100.404 41.2992 100.556 41.1028 100.619C40.4629 100.824 39.9689 100.352 39.8036 99.7557C39.6608 99.2405 39.8515 98.6264 39.65 98.1426C39.5384 97.8744 39.3325 97.65 39.2162 97.38C39.101 97.1124 39.0431 96.8328 39.0246 96.5419C38.9896 95.9916 39.476 95.3305 39.2046 94.832C39.1468 94.7256 39.2123 94.5519 39.3481 94.5551ZM30.848 88.877C31.2813 88.7889 31.7728 88.5871 32.2001 88.7548C32.4198 88.8412 32.5283 89.1091 32.3427 89.2954C32.0205 89.6185 31.5523 89.6365 31.1183 89.7126L31.0801 89.7195C30.567 89.8145 30.0529 89.9046 29.5382 89.9899C28.5697 90.1504 27.599 90.2923 26.6249 90.4128C25.6244 90.5367 24.6211 90.647 23.6164 90.7299L23.2274 90.7619C22.3787 90.8298 21.4956 90.881 20.6629 90.7509C20.5419 90.732 20.5614 90.5558 20.6629 90.5249C21.5752 90.2487 22.5759 90.1746 23.519 90.0577C24.5218 89.9333 25.5228 89.8018 26.5212 89.6459C27.518 89.4901 28.5135 89.3229 29.5053 89.1382C29.9536 89.0548 30.4012 88.9678 30.848 88.877ZM46.4825 87.9901C46.1023 87.8554 45.684 87.6559 45.272 87.7226C44.5615 87.8378 43.9291 88.5303 43.3667 88.9864L43.6491 88.9314C45.094 88.6536 47.0075 88.3543 48.2204 89.2734C48.2235 89.2681 48.2259 89.2628 48.2294 89.2575C48.3274 89.1087 48.4408 88.9927 48.5646 88.8654C48.5764 88.8542 48.5879 88.8427 48.5991 88.831L48.6659 88.7598L48.5131 88.7069C48.1859 88.5912 47.7982 88.4417 47.7369 88.4199L47.7327 88.4184C47.3155 88.2771 46.8978 88.1373 46.4825 87.9901ZM34.6109 57.6918C34.5514 56.9267 35.7417 56.933 35.8007 57.6918C35.9293 59.3483 35.5566 60.9891 34.7546 62.4414C34.7487 62.452 34.7422 62.4614 34.736 62.4714C35.2377 62.7325 35.745 62.983 36.2636 63.2069C36.9271 63.4934 37.603 63.7544 38.291 63.9757C38.9134 64.176 39.6802 64.2551 40.2034 64.672C41.3067 65.5509 40.8922 67.375 40.68 68.5573L40.6469 68.744C40.5412 69.3524 40.4647 69.9766 40.7212 70.5605C40.995 71.1842 41.5487 71.6469 42.0426 72.0931L42.1424 72.1836C42.58 72.5824 43.08 73.067 43.401 73.6077C43.694 73.0017 44.0934 72.5064 44.5157 71.9489C44.817 71.551 44.6026 71.4198 44.3861 71.0312C44.1778 70.6571 44.076 70.2583 44.1412 69.8315C44.2614 69.0434 44.8911 68.474 45.5178 68.0463C46.258 67.5413 47.0841 67.1672 47.8493 66.6975C49.4216 65.7324 50.9529 64.6289 52.3324 63.4034C52.3705 63.3695 52.4364 63.4139 52.4059 63.4602C51.3162 65.1184 50.0384 66.5512 48.468 67.7674C47.8312 68.2606 47.1623 68.6697 46.4889 69.0997L46.2953 69.224C46.0249 69.3992 45.6876 69.6334 45.5654 69.9317C45.4424 70.2317 45.7047 70.4582 45.8459 70.7068C46.2943 71.496 46.078 72.2323 45.5464 72.9016L45.5216 72.9325C44.9934 73.5837 44.5931 74.1893 44.4016 75.0213C43.9902 76.8084 44.5632 78.6699 45.1631 80.3477L45.1868 80.4138C45.5112 81.3182 45.8561 82.2159 46.138 83.1347L46.2156 83.3887C46.471 84.2341 46.6801 85.068 46.3936 85.9371C46.2962 86.2327 45.8932 86.3025 45.7258 86.0243C45.1353 85.0432 44.9881 83.8626 44.6179 82.7839C44.2572 81.7326 43.843 80.7003 43.4945 79.6448C43.0458 78.2857 42.7455 76.8227 42.9085 75.3971C42.9037 75.3888 42.8984 75.381 42.8944 75.3723L42.7802 75.1223C42.4688 74.4455 42.1679 73.8545 41.6015 73.3151C41.0107 72.7523 40.3695 72.2542 39.9046 71.573C38.8949 70.0933 39.5193 68.4473 39.6413 66.8294L39.6553 66.631C39.6774 66.2951 39.6896 65.8386 39.4702 65.6061C39.2235 65.3444 38.6449 65.2776 38.3175 65.1617C37.4715 64.8622 36.6378 64.5132 35.8437 64.0942C35.0879 63.6953 34.3557 63.2546 33.6739 62.7384L33.3284 62.4783C32.7832 62.0668 32.2179 61.6174 31.8525 61.0573C31.8103 60.9928 31.882 60.8887 31.9583 60.9196C32.5683 61.1672 33.1256 61.5611 33.6963 61.9038C33.7052 61.8829 33.7155 61.8618 33.7272 61.8406C34.4333 60.5622 34.7237 59.1459 34.6109 57.6918ZM54.096 66.4507C54.339 65.784 55.4467 65.8355 55.4025 66.6276C55.3686 67.2362 55.1104 67.7855 54.8742 68.3381L54.849 68.3973C54.6052 68.973 54.3236 69.5136 53.9866 70.0412C53.3427 71.0499 52.5886 71.986 51.783 72.8695C51.0527 73.6704 50.0942 74.1602 48.9897 74.0788C48.5243 74.0445 48.0545 73.926 47.6467 73.6935C47.1623 73.4172 46.6363 72.5875 46.0183 72.7885C45.9586 72.8079 45.9028 72.7203 45.9545 72.6788C46.6679 72.1041 47.4776 72.9952 48.1606 73.2099C49.1898 73.5334 50.246 73.1758 50.9084 72.3434C51.6 71.4744 52.2366 70.5014 52.8179 69.5552C53.1131 69.0747 53.3824 68.576 53.615 68.0621C53.8498 67.5434 53.9031 66.9796 54.096 66.4507ZM52.4372 62.3477C52.4072 62.2556 52.5216 62.1681 52.6024 62.2207C53.0712 62.526 53.4774 62.9293 53.9098 63.2829C54.3896 63.6752 54.8728 64.0595 55.3636 64.4379C56.079 64.9896 55.2493 66.0053 54.6195 65.4026C53.7577 64.5781 52.8139 63.5001 52.4372 62.3477ZM49.8627 59.1207C50.0532 58.386 51.1796 58.689 51.0154 59.415L51.01 59.4372C50.6991 60.6365 51.1419 61.8575 52.0872 62.635L52.122 62.6632C52.7199 63.142 51.8727 63.9789 51.2806 63.5047C49.988 62.4699 49.4503 60.7119 49.8627 59.1207Z" fill="black"/>
<path fill-rule="evenodd" clip-rule="evenodd" d="M59.6464 35.7333C59.2754 32.7721 58.1102 29.6281 56.8848 26.8674C54.1293 21.0306 47.821 20.227 42.1658 19.0236C36.5853 18.2108 30.6759 17.4769 25.1795 19.0985C22.0895 19.8558 20.8827 23.5373 21.3703 26.4425C21.6486 28.2529 22.4724 29.9662 23.1748 31.644C24.5709 35.0896 25.4567 38.7784 25.4582 42.5089C25.3624 44.9467 25.0184 47.7293 27.8189 48.7619C30.4837 50.0876 30.7088 53.6813 34.0456 55.7203C35.3949 58.4543 39.0702 58.695 41.7155 59.3292C43.3875 59.6493 45.0783 59.8849 46.7737 60.0371C51.6829 60.6664 55.6102 59.2433 58.18 54.8684C59.8997 52.2059 61.1803 49.1317 60.8639 45.9048C60.5488 42.5069 60.0239 39.1267 59.6464 35.7333Z" fill="white"/>
<path fill-rule="evenodd" clip-rule="evenodd" d="M42.208 11.9299C42.4882 11.6122 42.9199 11.7212 43.182 11.9724C43.3525 12.0227 43.5178 12.0975 43.6739 12.1965C44.0267 12.1512 44.3965 12.1512 44.7425 12.1639C44.8264 12.1168 44.9164 12.0749 45.0143 12.0389C45.7138 11.7831 46.3333 11.913 46.8442 12.2555C47.0903 12.0226 47.4008 11.8765 47.7978 11.8985C48.152 11.9183 48.4044 12.0851 48.6208 12.3047C48.8365 11.9935 49.1853 11.7715 49.6198 11.7406C50.2271 11.6974 50.8109 11.941 51.2947 12.3182C51.5766 11.9947 51.961 11.8088 52.3893 11.807C52.6711 11.7558 52.9685 11.776 53.2372 11.8572C53.6273 11.975 53.9699 12.1959 54.2427 12.4825C54.6743 12.069 55.2026 11.7715 55.8118 11.8149C56.6002 11.8719 57.2538 12.4518 57.5576 13.1656C58.0912 13.3794 58.5839 13.6844 58.9956 14.1193C59.0176 14.1422 59.0386 14.1662 59.0605 14.1903C59.2824 14.2721 59.4912 14.3882 59.6751 14.541C60.2577 15.026 60.3876 15.7278 60.1948 16.4155C60.2217 16.5255 60.2447 16.6375 60.2657 16.7494C60.8113 16.8324 61.307 17.1474 61.5888 17.6602C61.9745 18.364 61.8986 19.2916 61.4809 19.9635C61.3013 20.2525 61.0733 20.496 60.8173 20.709C61.1068 21.3668 60.9679 22.1517 60.5011 22.6838C60.3874 22.8672 60.2478 23.0328 60.0907 23.1826C60.2641 23.8627 59.9557 24.5644 59.3401 24.9278L59.2875 25.0596C59.2786 25.0816 59.2697 25.1034 59.2604 25.1249C59.2536 25.1529 59.2452 25.18 59.2369 25.2073C59.2222 25.4486 59.1428 25.6855 58.9851 25.9086C58.6623 26.3659 58.2621 26.6641 58.0499 27.1979L58.0287 27.254C57.9374 27.5066 57.6428 27.6849 57.3918 27.6069C58.7855 30.4701 59.5162 33.6561 60.0179 36.7783C60.268 38.336 60.4611 39.899 60.6176 41.468L60.7712 43.0305C60.9062 44.4193 61.0264 45.8127 61.0272 47.2062C61.0292 50.3583 60.1278 53.3903 58.1931 55.8986C56.3634 58.2698 53.7742 59.9883 50.8492 60.6651C47.8293 61.3629 44.2868 61.088 41.5787 59.4905C40.7802 59.0207 41.4797 57.8909 42.2922 58.2689C43.8301 58.9847 45.393 59.5166 47.0978 59.6355C48.7597 59.7524 50.4255 59.5444 52.0014 59.0006C54.6086 58.1 56.8271 56.2136 58.2531 53.8643C58.9556 52.7065 59.4643 51.45 59.7351 50.1223C60.0722 48.4675 60.0214 46.7571 59.8975 45.0812L59.889 44.967C59.6441 41.7378 59.3214 38.4888 58.7997 35.2919C58.3386 32.4648 57.6296 29.6951 56.7092 26.9866C56.3486 26.6691 55.9453 26.4064 55.5137 26.2068C52.3532 26.0748 49.187 26.1133 46.0306 26.3315C43.3387 26.5187 40.6598 26.8355 38.0011 27.2973L37.7164 27.3473C37.1278 27.4521 36.4742 27.5121 35.9196 27.7492C35.4439 27.9531 35.2511 28.345 35.1311 28.8267C34.8294 30.0454 34.7834 31.3791 34.7324 32.6287C34.6825 33.8502 34.7954 35.0819 34.6974 36.2995C34.6145 37.3182 34.3537 38.3608 33.5992 39.0977C33.2045 39.4835 32.7188 39.6944 32.2631 39.9874C31.9683 40.1764 31.8434 40.3712 31.8814 40.7211C31.9633 41.4869 32.5799 42.4516 31.8874 43.1074C31.7655 43.2224 31.5546 43.2374 31.4347 43.1074C31.1489 42.7966 30.7542 42.5596 30.4154 42.3087C30.2735 42.2048 30.3914 42.0028 30.5523 42.0747C30.7642 42.1698 30.98 42.2818 31.2009 42.3797C30.7132 41.9779 30.0197 41.7808 29.4421 41.6638C29.1513 41.6059 28.8455 41.5889 28.5427 41.616C28.3189 41.7228 28.09 41.8219 27.8612 41.9188C27.5704 42.0408 27.2766 42.1517 26.9808 42.2568C25.9545 43.0934 25.4649 44.4541 25.6787 45.7847C25.7956 46.5194 26.1344 47.3182 26.7729 47.7471C27.5294 48.255 28.5427 48.0369 29.3601 48.4139C30.1256 48.7667 30.5913 49.4796 30.9401 50.2174L31.0854 50.5245C31.4092 51.2046 31.7419 51.8666 32.1842 52.4856C32.6958 53.2024 33.3224 53.8462 34.0059 54.3991C34.3375 54.6667 34.691 54.9074 35.0562 55.1266L35.1561 55.1859C35.5259 55.4028 35.7907 55.6096 35.8157 56.0685C35.8237 56.2284 35.7227 56.3744 35.5928 56.4574C35.0332 56.8123 34.4766 56.3684 34.0109 56.0585C33.5083 55.7246 33.0276 55.3488 32.5829 54.9389C31.7375 54.1612 31.006 53.2375 30.4434 52.2347C30.0147 51.471 29.7709 50.3963 29.0933 49.8045C28.6796 49.4435 28.095 49.4406 27.5784 49.3745C27.0977 49.3126 26.643 49.2127 26.2153 48.9757C24.4755 48.009 23.9839 45.6687 24.3966 43.8603C24.4665 43.5553 24.5645 43.2584 24.6854 42.9725C24.0378 43.0804 23.3103 42.4107 23.5732 41.7348C23.5931 41.6838 23.6161 41.636 23.6381 41.5869C23.2114 41.306 22.8746 40.8802 22.7148 40.3233C22.6328 40.0353 22.6208 39.7444 22.6638 39.4635C22.4569 39.3247 22.2861 39.1336 22.1761 38.8987C21.8324 38.7397 21.5276 38.5019 21.3457 38.162C21.0939 37.6931 21.1259 37.2612 21.3177 36.8723C21.2907 36.8234 21.2648 36.7734 21.2398 36.7223C20.5353 36.2756 20.0436 35.5057 20.0996 34.652C20.1176 34.3691 20.1875 34.1141 20.2954 33.8843C20.2864 33.8553 20.2775 33.8252 20.2695 33.7962C19.6799 33.4963 19.1922 33.0036 19.0183 32.3458C18.8444 31.6839 19.0493 31.0241 19.459 30.5162C18.8594 30.0775 18.4987 29.4646 18.7175 28.5378C18.8065 28.161 18.9853 27.818 19.2272 27.5291C19.2262 27.5202 19.2242 27.5112 19.2222 27.5021L19.1661 27.4586C18.4259 26.8743 18.0004 26.1296 18.4547 25.2138C18.6586 24.802 18.9494 24.515 19.2911 24.3261L19.3081 24.2721V24.2721C19.0633 23.7473 18.9804 23.1644 19.1492 22.5516C19.2871 22.0469 19.6139 21.6449 20.0316 21.3781C20.0036 21.152 20.0076 20.9112 20.0526 20.6502C20.1276 20.2094 20.3464 19.8245 20.6662 19.5516C20.6782 19.4935 20.6932 19.4367 20.7102 19.3796C20.8181 19.0308 21.0199 18.6519 21.2538 18.3709C21.4466 18.138 21.6625 18.053 21.9263 18.044C21.9103 17.8292 21.9213 17.6111 21.9653 17.3902C22.1002 16.7085 22.5339 16.0676 23.1764 15.7767C23.4403 15.6577 23.7181 15.6228 23.9859 15.6517C24.2137 15.1719 24.6584 14.8241 25.205 14.7491C25.4179 14.7191 25.6157 14.721 25.7976 14.7481C25.9005 14.7 26.0075 14.6571 26.1194 14.618C26.1933 14.592 26.2683 14.568 26.3432 14.5441C26.5961 14.2302 26.9288 13.9792 27.3176 13.8284C27.7663 13.6534 28.2229 13.6713 28.6277 13.8183L28.7566 13.7913V13.7913C28.9584 13.4414 29.2802 13.1705 29.7749 13.0475C30.3365 12.9085 30.9131 13.1025 31.3548 13.4555C31.3568 13.4555 31.3588 13.4555 31.3618 13.4544C31.5926 12.9375 31.9873 12.5776 32.6499 12.6026C33.0626 12.6186 33.4353 12.8237 33.7231 13.1156C33.883 13.0955 34.0429 13.0775 34.2038 13.0596C34.3737 12.8606 34.5625 12.6747 34.7714 12.5078C35.1132 12.2337 35.5578 12.2558 35.8097 12.6416C35.8646 12.7256 35.9156 12.8106 35.9666 12.8955L36.1974 12.8795V12.8795C36.4692 12.5127 36.84 12.2647 37.3476 12.2448C37.8133 12.2257 38.1451 12.4538 38.3979 12.7726C38.6037 12.7676 38.8106 12.7637 39.0174 12.7606C39.2583 12.4817 39.5421 12.2357 39.8659 12.0318C40.1137 11.8759 40.4794 11.9289 40.6803 12.1369C40.816 12.2782 40.9423 12.4258 41.0597 12.5785C41.3624 12.239 41.7712 12.0154 42.208 11.9299ZM27.5004 43.6753C27.9671 43.4094 28.5947 43.6973 29.0464 43.9233C29.597 44.1982 30.1436 44.6131 30.4804 45.1329C30.939 45.8407 29.8608 46.4125 29.3781 45.7777C29.0813 45.3868 28.8445 44.9929 28.4847 44.651C28.156 44.3371 27.6793 44.1272 27.4904 43.7133C27.4834 43.6993 27.4854 43.6833 27.5004 43.6753ZM27.8286 26.4954L27.8373 26.4705C27.97 26.1073 27.3908 25.9507 27.2592 26.3109C27.0598 26.8569 27.2897 27.4504 27.8287 27.6861C27.9781 27.7515 28.1488 27.7288 28.2389 27.5785C28.3145 27.4521 28.2794 27.2329 28.1313 27.1683C27.828 27.0356 27.7265 26.8014 27.8286 26.4954V26.4954ZM22.838 25.4799C23.1279 25.2239 22.7025 24.801 22.414 25.0558C22.1448 25.2935 21.9452 25.6164 21.997 25.9878C22.0499 26.3663 22.3352 26.6335 22.6475 26.8223C22.9785 27.0226 23.2801 26.5041 22.9501 26.3044L22.913 26.2817C22.7744 26.1956 22.6123 26.0773 22.5888 25.9079C22.5639 25.728 22.7161 25.5875 22.838 25.4799ZM24.4844 20.9641L24.505 20.949C24.8164 20.7266 24.5173 20.2062 24.2023 20.431C23.9135 20.6372 23.6819 20.9052 23.6575 21.2747C23.6338 21.6337 23.8165 21.9451 24.0553 22.1977C24.321 22.4787 24.7445 22.054 24.4793 21.7736C24.2209 21.5003 24.1704 21.2021 24.4844 20.9641V20.9641Z" fill="black"/>
<path fill-rule="evenodd" clip-rule="evenodd" d="M48.4267 53.2144C47.7549 52.9402 47.1555 52.4829 46.7173 51.8987C46.565 51.6956 46.5255 51.4812 46.5574 51.285C46.5934 51.0645 46.7238 50.8646 46.9017 50.7305C47.0801 50.596 47.3033 50.5297 47.5191 50.5635C47.7066 50.5929 47.8932 50.6956 48.041 50.9086L48.0718 50.9512C48.3323 51.3038 48.6718 51.5931 49.0586 51.7795C49.4315 51.9593 49.8484 52.0431 50.2799 51.9944C51.1017 51.9015 51.6682 51.4569 52.2702 50.8531C52.3449 50.7769 52.4195 50.6982 52.4946 50.6184C52.542 50.5459 52.6077 50.4994 52.6807 50.475C52.7618 50.4479 52.8535 50.4494 52.9375 50.4787C53.0185 50.507 53.0909 50.5606 53.1395 50.6319C53.1857 50.6997 53.2118 50.7835 53.2033 50.8798C53.1482 51.5056 52.8212 52.064 52.3567 52.5025C51.8408 52.9895 51.157 53.3264 50.5132 53.4445C49.8039 53.5747 49.0811 53.4814 48.4267 53.2144V53.2144ZM50.8474 43.5613C51.602 44.0202 52.7518 45.0902 51.94 46.2278C50.9845 47.2308 49.6087 46.0808 48.9307 45.5606C48.3021 45.1575 47.5958 46.1943 48.179 46.665C53.078 50.2934 55.0661 43.6813 51.2291 43.0218C50.8066 42.9492 50.6497 43.4194 50.8474 43.5613ZM42.068 39.3405C42.1514 38.3052 43.7276 38.0701 43.8844 39.0946C44.0248 40.0123 43.8595 40.8553 43.4463 41.6816C43.0514 42.4709 42.0591 42.1027 41.984 41.3839C41.8834 40.4204 42.0162 39.9845 42.068 39.3405ZM54.0662 38.8821C54.286 38.5942 54.6032 38.3977 54.9834 38.5088C56.1711 38.856 55.821 40.5427 55.4039 41.3638C55.1772 41.8097 54.4446 41.9227 54.1136 41.5301C53.5739 40.8899 53.3155 39.6114 54.0016 38.9808C54.0201 38.9482 54.0408 38.9153 54.0662 38.8821ZM43.43 34.8102L43.6176 34.7774C44.198 34.677 44.9196 34.5805 45.3302 35.0473C45.5479 35.2948 45.6229 35.7549 45.3302 35.9918C44.8153 36.4087 44.2461 36.2471 43.6291 36.2824C43.1207 36.3116 42.632 36.3958 42.1423 36.5358C41.0678 36.843 40.1923 37.4039 39.2747 38.0197C39.1542 38.1005 39.0313 37.9464 39.0888 37.8337C39.6185 36.7957 40.6451 35.9431 41.6734 35.4234C42.2222 35.1459 42.8228 34.9158 43.43 34.8102ZM52.9839 34.3453L53.1275 34.3747C54.6902 34.7015 56.7204 35.3542 57.4604 36.8897C57.4886 37.1068 57.4588 37.1533 57.4346 37.1837L57.4265 37.1938C57.4065 37.2198 57.3906 37.2556 57.2965 37.2851C57.2704 37.2789 57.2441 37.2723 57.2174 37.2654C56.8782 37.1764 56.6099 37.0539 56.35 36.9268L56.0683 36.788C55.7415 36.6277 55.4118 36.4732 55.0624 36.3591C54.3167 36.1158 53.5497 35.9444 52.7708 35.8529C52.602 35.8331 52.4394 35.7761 52.3112 35.6784C52.1894 35.5856 52.0964 35.4573 52.054 35.2866C51.9991 35.0658 52.0149 34.8986 52.1333 34.6994C52.2224 34.5497 52.3498 34.446 52.4961 34.3865C52.6453 34.3258 52.8151 34.3115 52.9839 34.3453Z" fill="black"/>
<path fill-rule="evenodd" clip-rule="evenodd" d="M42.9245 53.8407C43.7336 51.9446 45.4994 50.551 47.5325 50.0415C49.0255 49.6683 50.5923 49.6802 52.1143 49.8283C52.9116 49.9054 53.7669 49.9685 54.5184 50.2648C55.1601 50.5179 55.683 50.9962 56.0762 51.5578C56.5443 52.2232 56.8627 52.9848 57.0862 53.7654C57.1179 53.8763 57.1478 53.9881 57.1756 54.1005C57.0784 54.6895 56.872 55.1907 56.3267 55.561C55.7946 55.9226 55.1597 56.0705 54.5268 56.1231C54.4647 56.0932 54.4047 56.0626 54.3497 56.0312C53.3634 55.4664 52.6692 54.1315 51.4244 54.3122C50.3134 54.4735 49.5821 55.8719 48.9214 56.6919C46.8007 56.9391 44.6816 56.3016 42.9561 55.0885C42.8685 54.6732 42.8634 54.2545 42.9245 53.8407M58.6169 52.4022C58.4473 51.926 58.2336 51.4647 57.9803 51.0302C57.143 49.5932 55.8576 48.4482 54.3317 47.7937C50.722 46.2475 46.0514 47.3375 43.1363 49.8733C42.1406 50.7402 41.1337 52.014 40.8292 53.3843C40.7383 53.4023 40.6525 53.4496 40.5818 53.5163C38.4757 52.1898 36.3068 50.9135 34.6096 49.0747C33.3771 47.7387 32.5198 46.1576 31.9949 44.4201C31.952 44.2771 31.7214 44.298 31.7284 44.4563C31.7304 44.4933 31.7324 44.5302 31.7344 44.5672C31.7125 44.4992 31.6087 44.5342 31.6007 44.6003C31.3183 46.7109 30.965 48.9486 31.2903 51.0702C31.4849 52.3362 32.0598 53.263 32.8282 54.2638C33.6515 55.3365 34.5836 56.3343 35.5367 57.2911C36.1415 57.8985 36.7732 58.599 37.5137 59.0443C38.375 59.5617 39.352 59.9551 40.2711 60.3543C41.2062 60.7617 42.1553 61.1379 43.1224 61.4642C45.0555 62.1187 47.0534 62.571 49.0863 62.7692C50.714 62.9273 52.5742 63.0995 54.1341 62.487C55.3297 62.0176 56.2947 61.1691 57.0602 60.1482C57.8935 59.0363 58.5523 57.7699 58.9164 56.4343C59.2948 55.0471 58.6967 52.6259 58.6169 52.4022" fill="black"/>
</g>
<rect x="1" y="-1" width="82.4109" height="82.4109" rx="41.2054" transform="matrix(-1 0 0 1 84.4102 2)" stroke="#18191F" stroke-width="2"/>
<defs>
<clipPath id="clip0_1190_9586">
<rect width="80.4109" height="80.4109" rx="40.2054" transform="matrix(-1 0 0 1 82.4102 2)" fill="white"/>
</clipPath>
</defs>
</svg>
