<svg width="48" height="48" viewBox="0 0 48 48" fill="none" xmlns="http://www.w3.org/2000/svg">
<rect width="48" height="48" rx="1.44993" fill="#03DDA0"/>
<path d="M24.7831 14.5175C21.9907 19.2909 18.4286 21.061 16.9966 21.3494C17.0208 27.2682 17.0691 39.2838 17.0691 39.9951C18.4316 39.9808 24.2547 41.2573 25.0292 41.4437C25.6488 41.5929 26.3869 41.6302 26.6785 41.6302H35.9724C37.4354 41.4868 37.378 39.4645 35.9724 39.3067H30.1924C28.7295 39.1489 28.8156 37.098 30.1924 36.7968H37.6792C39.5724 36.7107 39.558 33.5124 37.6792 33.3689H31.5406C30.3932 33.1968 30.1494 31.1602 31.5406 30.7873H39.013C40.7485 30.6869 40.9349 27.5459 39.013 27.4168H32.6737C31.228 27.325 31.2681 24.9786 32.6737 24.8163H39.4665C41.7176 24.7123 41.7176 21.2678 39.4665 21.1982H28.1365C27.208 21.1982 27.3914 20.2704 27.5081 20.1023C27.5909 19.9829 27.7 19.8657 27.8588 19.5645C29.6 15.3393 29.9884 13.0288 30.244 11.7039C30.4997 10.379 29.6629 9.00764 28.5124 8.54277C27.3618 8.07789 26.9086 8.55439 26.6627 9.59495C26.3345 11.1761 25.7975 12.5485 24.7831 14.5175Z" fill="white"/>
<path fill-rule="evenodd" clip-rule="evenodd" d="M24.4947 7.86431C25.0501 5.45825 28.3447 5.53213 29.2704 6.05034C30.1959 6.56862 33.5647 8.38274 32.7504 12.1957C32.0989 15.2461 31.3682 17.7118 31.0843 18.5633H39.2287C40.0432 18.551 41.9165 18.889 42.8939 20.3401C44.1155 22.154 43.7082 24.3383 43.19 25.3008C42.7754 26.0708 42.2769 26.4608 42.0794 26.5596C42.3509 26.9297 42.8939 27.9146 42.8939 28.8919C42.8939 30.1135 42.4494 31.5574 41.0427 32.4829C41.6185 33.446 42.7919 36.7336 39.2722 38.8479C39.6185 39.6403 39.9136 41.6179 38.325 43.1912C37.8095 43.6876 37.1795 44.1459 36.1294 44.2223C35.2892 44.2834 29.1725 44.2478 26.2191 44.2223C25.9571 44.1886 25.303 44.0935 24.7835 43.9826C24.1338 43.8437 20.583 42.6067 16.7481 42.6876L16.7425 42.6949C16.4025 43.1321 15.8728 43.8132 15.0653 43.8238C14.415 43.8324 8.98019 43.8274 6.34386 43.8238C5.52193 43.8238 4.40074 43.0088 4.30463 41.8235V19.7671C4.30476 18.9502 5.18575 17.9827 6.21081 17.957H15.3248C15.9334 17.9571 16.4764 18.3459 16.6836 18.7853C18.6704 18.1189 23.0139 15.0017 24.4947 7.86431ZM28.5122 8.54274C27.3617 8.07789 26.9083 8.55444 26.6624 9.59495C26.3342 11.176 25.7972 12.5486 24.7829 14.5175C21.9905 19.2907 18.4285 21.0608 16.9965 21.3492C17.0206 27.2678 17.0689 39.2829 17.0689 39.995C18.4314 39.9807 24.2538 41.2568 25.0289 41.4434C25.6485 41.5926 26.3869 41.6302 26.6785 41.6302H35.9723C37.4352 41.4867 37.3778 39.4645 35.9723 39.3067H30.1922C28.7294 39.1489 28.8154 37.0978 30.1922 36.7965H37.6789C39.5721 36.7105 39.5578 33.5123 37.6789 33.3688H31.5405C30.3931 33.1967 30.1493 31.1601 31.5405 30.7872H39.013C40.7483 30.6866 40.9347 27.5461 39.013 27.4168H32.6734C31.2278 27.3249 31.268 24.9785 32.6734 24.8161H39.4662C41.7173 24.712 41.7173 21.2675 39.4662 21.198H28.1365C27.2079 21.198 27.3911 20.2702 27.5078 20.102C27.5906 19.9827 27.6997 19.8654 27.8585 19.5642C29.5996 15.3391 29.9882 13.0286 30.2439 11.7037C30.4995 10.3789 29.6627 9.00762 28.5122 8.54274Z" fill="#0B1E24"/>
<path d="M9.94347 8.66294C10.1222 8.33629 10.5323 8.21628 10.859 8.39487L14.8054 10.555C15.132 10.7338 15.2521 11.1435 15.0735 11.4702C14.8946 11.7969 14.4843 11.9167 14.1576 11.7379L10.2115 9.57849C9.88496 9.39965 9.76484 8.98962 9.94347 8.66294Z" fill="#0B1E24"/>
<path d="M13.9439 4.76134C14.274 4.58898 14.6817 4.71682 14.8541 5.04687L16.9369 9.03443C17.1092 9.36456 16.9814 9.77191 16.6513 9.94438C16.3212 10.1167 15.9135 9.98895 15.741 9.65885L13.6583 5.67161C13.4859 5.34152 13.6139 4.93386 13.9439 4.76134Z" fill="#0B1E24"/>
<path d="M19.4503 3.74732C19.8209 3.78441 20.0917 4.11509 20.0546 4.48568L19.6064 8.96198C19.5693 9.33256 19.239 9.60299 18.8684 9.56597C18.4978 9.52881 18.2274 9.19817 18.2644 8.82761L18.7123 4.35165C18.7494 3.98112 19.0798 3.71044 19.4503 3.74732Z" fill="#0B1E24"/>
</svg>
