<svg width="16" height="16" viewBox="0 0 16 16" fill="none" xmlns="http://www.w3.org/2000/svg">
<path d="M8.08786 4.25494C6.98501 6.14015 5.57817 6.83925 5.0126 6.95314C5.02215 9.29075 5.04125 14.0362 5.04125 14.3172C5.57937 14.3115 7.87914 14.8156 8.18502 14.8893C8.42972 14.9482 8.72125 14.9629 8.83643 14.9629H12.507C13.0848 14.9063 13.0621 14.1076 12.507 14.0453H10.2242C9.64645 13.983 9.68043 13.173 10.2242 13.054H13.1811C13.9288 13.02 13.9231 11.7568 13.1811 11.7002H10.7567C10.3035 11.6322 10.2072 10.8279 10.7567 10.6806H13.7079C14.3933 10.6409 14.4669 9.40043 13.7079 9.34945H11.2042C10.6332 9.3132 10.6491 8.38649 11.2042 8.3224H13.887C14.776 8.2813 14.776 6.92092 13.887 6.89346H9.41226C9.04552 6.89346 9.11796 6.52702 9.16405 6.46061C9.19675 6.41348 9.23985 6.36719 9.30258 6.24822C9.99024 4.5795 10.1436 3.66699 10.2446 3.14373C10.3456 2.62047 10.0151 2.07886 9.56069 1.89526C9.10628 1.71166 8.92727 1.89985 8.83016 2.31081C8.70055 2.93529 8.48846 3.47729 8.08786 4.25494Z" fill="white"/>
<path fill-rule="evenodd" clip-rule="evenodd" d="M7.97394 1.62731C8.19329 0.677047 9.49448 0.706227 9.86006 0.910893C10.2256 1.11558 11.5561 1.83206 11.2345 3.33796C10.9772 4.54269 10.6886 5.51652 10.5765 5.85282H13.7931C14.1147 5.84795 14.8546 5.98144 15.2406 6.55454C15.7231 7.27094 15.5622 8.13359 15.3575 8.51375C15.1938 8.81783 14.9969 8.97186 14.9189 9.01087C15.0261 9.15708 15.2406 9.54603 15.2406 9.93201C15.2406 10.4145 15.065 10.9848 14.5095 11.3503C14.7369 11.7306 15.2003 13.0291 13.8102 13.8641C13.947 14.177 14.0635 14.9581 13.4361 15.5794C13.2325 15.7755 12.9837 15.9565 12.569 15.9867C12.2372 16.0108 9.82139 15.9967 8.65498 15.9867C8.5515 15.9733 8.29316 15.9358 8.08801 15.892C7.83141 15.8371 6.42904 15.3486 4.91449 15.3806L4.91228 15.3834C4.77798 15.5561 4.56879 15.8251 4.24984 15.8293C3.99304 15.8327 1.84658 15.8307 0.805381 15.8293C0.480767 15.8293 0.0379576 15.5074 0 15.0393V6.32822C5.38334e-05 6.00561 0.347996 5.62349 0.752833 5.61337H4.35233C4.5927 5.61338 4.80718 5.76694 4.88899 5.94049C5.67366 5.6773 7.38911 4.44619 7.97394 1.62731ZM9.56064 1.89525C9.10625 1.71166 8.92717 1.89987 8.83005 2.31081C8.70044 2.93526 8.48834 3.47733 8.08775 4.25494C6.98493 6.14008 5.57813 6.83916 5.01256 6.95307C5.02211 9.2906 5.04117 14.0359 5.04117 14.3171C5.57926 14.3115 7.87879 14.8155 8.18491 14.8892C8.42962 14.9481 8.72125 14.9629 8.83642 14.9629H12.5069C13.0847 14.9063 13.062 14.1076 12.5069 14.0453H10.2241C9.64639 13.9829 9.68037 13.1729 10.2241 13.0539H13.181C13.9287 13.0199 13.923 11.7568 13.181 11.7002H10.7566C10.3035 11.6322 10.2072 10.8278 10.7566 10.6806H13.7079C14.3932 10.6408 14.4668 9.40048 13.7079 9.34944H11.2041C10.6331 9.31313 10.649 8.38643 11.2041 8.32229H13.8868C14.7759 8.28119 14.7759 6.92083 13.8868 6.89337H9.41224C9.0455 6.89337 9.11785 6.52692 9.16394 6.4605C9.19664 6.41338 9.23974 6.36705 9.30246 6.2481C9.9901 4.57942 10.1436 3.66689 10.2445 3.14364C10.3455 2.62041 10.015 2.07885 9.56064 1.89525Z" fill="#0B1E24"/>
<path d="M2.22702 1.94272C2.29763 1.81371 2.45958 1.76632 2.58861 1.83685L4.14722 2.68996C4.27622 2.76059 4.32365 2.92239 4.25309 3.05142C4.18245 3.18045 4.02041 3.22779 3.89137 3.15717L2.3329 2.30431C2.20392 2.23368 2.15648 2.07174 2.22702 1.94272Z" fill="#0B1E24"/>
<path d="M3.80696 0.401807C3.93733 0.333737 4.09835 0.384226 4.16647 0.514576L4.98902 2.08944C5.0571 2.21982 5.00662 2.3807 4.87625 2.44882C4.74586 2.51689 4.58485 2.46642 4.51674 2.33605L3.69419 0.761315C3.6261 0.630947 3.67663 0.469944 3.80696 0.401807Z" fill="#0B1E24"/>
<path d="M5.98169 0.00132796C6.12806 0.0159753 6.23499 0.146575 6.22037 0.29294L6.04335 2.06082C6.02869 2.20718 5.89822 2.31399 5.75186 2.29937C5.60552 2.28469 5.49869 2.15411 5.51332 2.00776L5.69021 0.240003C5.70486 0.0936648 5.83537 -0.0132362 5.98169 0.00132796Z" fill="#0B1E24"/>
</svg>
