<svg width="183" height="183" viewBox="0 0 183 183" fill="none" xmlns="http://www.w3.org/2000/svg">
<circle cx="91.3434" cy="91.3434" r="91.3434" fill="#3FE5C4"/>
<path d="M42.9753 80.3031V50.0777H38.0346V44.7011H53.1473V50.0777H48.2066V80.3031H42.9753ZM52.0685 80.3031L57.4451 44.7011H63.8389L69.2155 80.3031H64.1295L63.1608 73.0374H58.1232L57.1545 80.3031H52.0685ZM58.8498 67.5154H62.4342L60.9326 55.5512L60.7873 53.6621H60.4967L60.3514 55.5512L58.8498 67.5154ZM77.8088 80.6906C76.3718 80.6906 75.177 80.4565 74.2243 79.9883C73.2717 79.5039 72.5209 78.8096 71.972 77.9054C71.423 77.0012 71.0274 75.9114 70.7852 74.6358C70.5592 73.3603 70.4462 71.9233 70.4462 70.3248L75.5806 69.8405C75.5806 70.6155 75.6048 71.3663 75.6533 72.0928C75.7179 72.8033 75.8228 73.4491 75.9681 74.0304C76.1296 74.5955 76.3556 75.0476 76.6463 75.3866C76.953 75.7257 77.3405 75.8952 77.8088 75.8952C78.5838 75.8952 79.1327 75.54 79.4557 74.8296C79.7786 74.103 79.94 73.2311 79.94 72.2139C79.94 71.1967 79.6736 70.1392 79.1408 69.0412C78.608 67.9433 77.9702 66.9019 77.2275 65.917C75.9681 64.2378 74.8621 62.6797 73.9095 61.2427C72.973 59.8057 72.2384 58.3929 71.7056 57.0044C71.1889 55.6158 70.9306 54.1627 70.9306 52.6449C70.9306 51.4501 71.0839 50.3522 71.3907 49.3511C71.6975 48.3339 72.1415 47.454 72.7228 46.7113C73.3202 45.9524 74.0387 45.3631 74.8783 44.9433C75.7179 44.5235 76.6785 44.3136 77.7603 44.3136C79.1005 44.3136 80.2307 44.5396 81.151 44.9917C82.0875 45.4438 82.8383 46.0896 83.4034 46.9292C83.9846 47.7688 84.4044 48.7699 84.6628 49.9324C84.9372 51.0788 85.0745 52.3543 85.0745 53.759L79.94 54.2434C79.94 53.646 79.9078 53.0486 79.8432 52.4512C79.7947 51.8376 79.6979 51.2806 79.5525 50.7801C79.4072 50.2795 79.1973 49.8759 78.9228 49.5691C78.6484 49.2623 78.2931 49.109 77.8572 49.109C77.1791 49.109 76.7108 49.3996 76.4525 49.9808C76.1942 50.546 76.065 51.3533 76.065 52.4027C76.065 53.759 76.4283 55.0668 77.1549 56.3262C77.8814 57.5856 78.8583 59.0549 80.0854 60.7341C81.5546 62.7201 82.7495 64.5446 83.6698 66.2076C84.6062 67.8707 85.0745 69.7113 85.0745 71.7296C85.0745 73.0051 84.9372 74.1918 84.6628 75.2898C84.3883 76.3715 83.9523 77.3161 83.3549 78.1234C82.7737 78.9307 82.0229 79.5604 81.1026 80.0125C80.1984 80.4646 79.1005 80.6906 77.8088 80.6906ZM86.7887 80.3031L92.1654 44.7011H98.5592L103.936 80.3031H98.8498L97.8811 73.0374H92.8435L91.8747 80.3031H86.7887ZM93.5701 67.5154H97.1545L95.6529 55.5512L95.5076 53.6621H95.217L95.0717 55.5512L93.5701 67.5154ZM106.705 80.3031V44.7011H119.154V50.0777H111.936V59.4263H116.78V64.8029H111.936V80.3031H106.705ZM121.274 80.3031V44.7011H133.239V50.0777H126.506V59.6685H131.35V64.8998H126.506V74.9265H133.239V80.3031H121.274Z" fill="black"/>
<path d="M92.247 92.4706C92.3725 92.4685 92.52 92.4751 92.6884 92.4989C93.2352 92.5765 93.8614 92.8066 94.4336 93.1962C95.5025 93.9244 96.3272 95.1551 96.1513 97.0019C95.3848 99.7697 94.6297 102.217 93.9482 104.645C93.3081 106.927 92.7557 109.116 92.6972 110.635C92.6508 111.842 92.5092 113.85 91.5908 115.61C90.7489 117.224 89.1917 118.767 85.8603 119.081C84.7516 119.185 83.9368 120.169 84.041 121.278C84.1454 122.387 85.1286 123.201 86.2373 123.098C90.9975 122.65 93.7249 120.242 95.1679 117.476C96.0299 115.824 96.4058 114.1 96.5781 112.733H100.617C100.352 113.43 100.205 114.185 100.205 114.975L100.214 115.299C100.304 117.074 101.131 118.655 102.393 119.744C101.053 120.899 100.205 122.61 100.205 124.517L100.214 124.842C100.297 126.489 101.015 127.968 102.125 129.043C100.942 130.188 100.205 131.793 100.205 133.57L100.214 133.894C100.301 135.605 101.069 137.137 102.254 138.221C100.995 139.373 100.205 141.029 100.205 142.869L100.214 143.192C100.253 143.958 100.43 144.688 100.719 145.357C100.718 145.355 100.716 145.352 100.715 145.35H91.9004L90.3076 144.766H90.4843L80.0019 140.731H58.1591C58.0003 140.731 57.8711 140.602 57.8711 140.443V113.021C57.8713 112.863 58.0004 112.734 58.1591 112.733H75.9472C75.9322 112.718 75.9178 112.701 75.9033 112.685C77.2882 112.463 78.7015 112.121 80.1152 111.416C81.5789 110.686 82.9487 109.617 84.291 108.05C86.8166 105.102 89.3061 100.311 92.247 92.4706ZM113.357 140.601C114.609 140.602 115.624 141.617 115.624 142.869C115.624 144.121 114.609 145.136 113.357 145.136H106.506C105.254 145.135 104.24 144.12 104.239 142.869C104.239 141.618 105.254 140.602 106.506 140.601H113.357ZM116.66 131.304C117.912 131.304 118.927 132.319 118.928 133.57C118.928 134.822 117.912 135.838 116.66 135.838H106.506C105.254 135.837 104.239 134.822 104.239 133.57C104.24 132.319 105.254 131.304 106.506 131.304H116.66ZM120.208 122.25C121.46 122.25 122.474 123.266 122.475 124.517C122.474 125.769 121.46 126.784 120.208 126.784H106.506C105.254 126.784 104.239 125.769 104.239 124.517C104.239 123.266 105.254 122.25 106.506 122.25H120.208ZM116.66 112.708C117.912 112.708 118.928 113.723 118.928 114.975C118.928 116.226 117.912 117.241 116.66 117.241H106.506C105.254 117.241 104.239 116.226 104.239 114.975C104.239 113.723 105.254 112.708 106.506 112.708H116.66Z" fill="white"/>
<path fill-rule="evenodd" clip-rule="evenodd" d="M89.7286 89.0553C90.8248 88.4415 92.1107 88.3432 93.2554 88.5055C94.428 88.6719 95.6348 89.1331 96.7046 89.8618C98.8932 91.3526 100.576 94.0289 100.142 97.6257L100.124 97.7754L100.084 97.92C99.342 100.61 98.4472 103.545 97.8324 105.736C97.5109 106.881 97.2525 107.873 97.0659 108.7H105.947C106.025 108.693 106.103 108.686 106.182 108.682L106.506 108.674H116.661L116.985 108.682C120.314 108.851 122.961 111.604 122.962 114.975L122.953 115.299C122.894 116.461 122.519 117.539 121.914 118.451C124.565 119.195 126.509 121.629 126.509 124.517L126.501 124.842C126.367 127.496 124.589 129.715 122.166 130.506C122.672 131.413 122.961 132.458 122.962 133.571L122.953 133.895C122.82 136.518 121.082 138.718 118.702 139.533C119.307 140.5 119.659 141.643 119.659 142.869L119.651 143.193C119.488 146.414 116.904 148.998 113.682 149.161L113.358 149.169H109.472C108.099 149.288 106.66 149.384 106.462 149.384H91.5418C91.305 149.384 91.0697 149.342 90.8474 149.26L78.5932 144.766H58.1592C55.7723 144.766 53.8372 142.831 53.8372 140.444V113.022C53.8372 110.635 55.7724 108.7 58.1592 108.7H75.2847C76.4455 108.512 77.4109 108.258 78.3152 107.807C79.2376 107.347 80.1911 106.635 81.2275 105.426C83.358 102.939 85.7493 98.4604 88.8209 90.1178L89.0786 89.4189L89.7286 89.0553ZM92.2475 92.4708C89.3065 100.311 86.8162 105.102 84.2906 108.05C82.9484 109.616 81.5791 110.687 80.1154 111.417C78.7016 112.122 77.2881 112.463 75.9032 112.686C75.9178 112.702 75.9319 112.718 75.9471 112.734H58.1592C58.0002 112.734 57.8711 112.863 57.8711 113.022V140.444C57.8711 140.603 58.0002 140.732 58.1592 140.732H80.0023L90.4844 144.766H90.3082L91.9009 145.35H100.715C100.429 144.682 100.253 143.956 100.214 143.193L100.206 142.869C100.206 141.028 100.996 139.372 102.255 138.22C101.07 137.136 100.301 135.605 100.214 133.895L100.206 133.571C100.206 131.793 100.942 130.189 102.126 129.043C101.015 127.968 100.298 126.489 100.214 124.842L100.206 124.517C100.206 122.61 101.054 120.9 102.393 119.745C101.131 118.656 100.304 117.075 100.214 115.299L100.206 114.975C100.206 114.185 100.353 113.43 100.618 112.734H96.5774C96.4052 114.1 96.0297 115.825 95.1677 117.477C93.7247 120.242 90.9979 122.65 86.2378 123.098C85.129 123.202 84.1453 122.387 84.0407 121.279C83.9364 120.17 84.7513 119.186 85.8602 119.082C89.1918 118.768 90.7494 117.224 91.5913 115.611C92.5098 113.85 92.6507 111.842 92.6972 110.635C92.7556 109.116 93.3085 106.927 93.9488 104.646C94.6303 102.217 95.3849 99.7706 96.1514 97.0027C96.3276 95.1556 95.503 93.9245 94.4339 93.1962C93.8617 92.8064 93.2356 92.5771 92.6887 92.4995C92.5201 92.4756 92.3731 92.4687 92.2475 92.4708ZM106.507 140.602C105.255 140.602 104.24 141.617 104.24 142.869C104.24 144.12 105.255 145.135 106.507 145.135H113.358C114.61 145.135 115.625 144.12 115.625 142.869C115.625 141.617 114.61 140.602 113.358 140.602H106.507ZM106.506 131.304C105.255 131.304 104.24 132.319 104.239 133.571C104.24 134.822 105.255 135.837 106.506 135.837H116.661C117.913 135.837 118.928 134.822 118.928 133.571C118.928 132.319 117.913 131.304 116.661 131.304H106.506ZM106.506 122.251C105.255 122.251 104.24 123.266 104.239 124.517C104.24 125.769 105.255 126.784 106.506 126.784H120.208C121.46 126.784 122.475 125.769 122.475 124.517C122.475 123.266 121.46 122.251 120.208 122.251H106.506ZM106.506 112.708C105.255 112.708 104.24 113.723 104.239 114.975C104.24 116.226 105.255 117.241 106.506 117.241H116.661C117.913 117.241 118.928 116.226 118.928 114.975C118.928 113.723 117.913 112.708 116.661 112.708H106.506Z" fill="black"/>
<path d="M110.818 89.2506C111.419 88.3129 112.666 88.0401 113.604 88.6412C115.058 89.5732 117.113 91.3597 118.829 93.8152C120.554 96.2839 122.009 99.5355 122.053 103.359C122.066 104.472 121.174 105.386 120.06 105.399C118.946 105.411 118.033 104.518 118.02 103.405C117.988 100.602 116.92 98.1253 115.522 96.1259C114.116 94.1134 112.448 92.6916 111.427 92.0369C110.489 91.4357 110.217 90.1884 110.818 89.2506Z" fill="black"/>
<path d="M106.718 95.9425C107.32 95.0047 108.567 94.7319 109.505 95.333C110.28 95.8301 111.315 96.7375 112.175 97.9684C113.044 99.2125 113.808 100.894 113.831 102.901C113.844 104.015 112.952 104.928 111.838 104.941C110.724 104.954 109.811 104.061 109.798 102.947C109.787 101.96 109.41 101.054 108.869 100.279C108.318 99.4912 107.671 98.9486 107.328 98.7287C106.39 98.1276 106.118 96.8802 106.718 95.9425Z" fill="black"/>
</svg>
