<svg width="200" height="193" viewBox="0 0 200 193" fill="none" xmlns="http://www.w3.org/2000/svg">
<path d="M10.7917 178.591L17.165 148.277H4.15065L5.89125 140.03H41.2923L39.5517 148.277H26.4838L20.0838 178.591H10.7917ZM43.8898 179.314C41.7118 179.314 39.873 178.849 38.3734 177.921C36.8738 176.993 35.7313 175.672 34.9458 173.958C34.1782 172.226 33.7943 170.164 33.7943 167.772C33.7943 166.344 33.9461 164.791 34.2496 163.113C34.5531 161.435 35.044 159.765 35.7224 158.105C36.4008 156.427 37.3023 154.901 38.427 153.526C39.5517 152.134 40.9174 151.027 42.5241 150.205C44.1486 149.366 46.0499 148.947 48.2279 148.947C50.7272 148.947 52.7088 149.518 54.1727 150.661C55.6544 151.803 56.6363 153.374 57.1183 155.374L56.2882 155.454L57.52 149.67H66.5175L62.1259 170.396C62.0188 170.968 62.0188 171.36 62.1259 171.575C62.233 171.771 62.5543 171.869 63.0899 171.869H64.8305L63.4112 178.591H59.7962C57.3504 178.591 55.583 177.93 54.494 176.609C53.4229 175.27 53.1283 173.387 53.6103 170.959L53.7978 170.048L54.9225 171.976C53.8692 174.458 52.3696 176.306 50.4237 177.519C48.4778 178.716 46.2998 179.314 43.8898 179.314ZM47.8798 172.244C49.1651 172.244 50.263 171.896 51.1735 171.2C52.1018 170.486 52.8516 169.584 53.4229 168.495C53.9942 167.406 54.4137 166.264 54.6815 165.068C54.9493 163.871 55.0832 162.791 55.0832 161.827C55.0832 159.917 54.6458 158.462 53.771 157.462C52.9141 156.463 51.8073 155.963 50.4505 155.963C49.2008 155.963 48.1297 156.338 47.2371 157.088C46.3445 157.837 45.6125 158.784 45.0413 159.926C44.4878 161.069 44.0772 162.256 43.8095 163.488C43.5595 164.719 43.4346 165.817 43.4346 166.781C43.4346 168.531 43.8184 169.879 44.586 170.825C45.3715 171.771 46.4694 172.244 47.8798 172.244ZM94.7152 179.314C92.6086 179.314 90.5735 179.055 88.6097 178.537C86.6638 178.019 84.9054 177.261 83.3344 176.261C81.7812 175.243 80.5226 173.994 79.5586 172.512C78.6124 171.012 78.0679 169.281 77.9251 167.317L87.6992 165.335C87.5029 166.585 87.6903 167.674 88.2616 168.602C88.8507 169.513 89.7165 170.218 90.8591 170.718C92.0016 171.218 93.3138 171.468 94.7955 171.468C95.9916 171.468 97.0003 171.298 97.8215 170.959C98.6605 170.602 99.3121 170.12 99.7763 169.513C100.24 168.888 100.473 168.165 100.473 167.344C100.473 166.29 100.08 165.451 99.2943 164.826C98.5088 164.202 97.277 163.648 95.5989 163.166L92.4658 162.256C91.3054 161.934 90.1539 161.524 89.0114 161.024C87.8688 160.524 86.8334 159.89 85.9051 159.123C84.9768 158.337 84.2359 157.382 83.6825 156.257C83.1291 155.115 82.8523 153.758 82.8523 152.187C82.8523 149.795 83.504 147.626 84.8072 145.68C86.1104 143.734 87.9045 142.19 90.1896 141.047C92.4926 139.887 95.1169 139.307 98.0625 139.307C99.9905 139.307 101.847 139.566 103.632 140.083C105.418 140.583 107.024 141.324 108.452 142.306C109.899 143.27 111.059 144.43 111.934 145.787C112.826 147.126 113.326 148.634 113.433 150.313L103.98 152.187C104.016 151.277 103.802 150.438 103.338 149.67C102.874 148.902 102.186 148.295 101.276 147.849C100.365 147.385 99.2586 147.153 97.9554 147.153C96.67 147.153 95.6435 147.367 94.8758 147.795C94.1082 148.224 93.5548 148.742 93.2156 149.349C92.8942 149.938 92.7336 150.527 92.7336 151.116C92.7336 152.187 93.2334 152.973 94.2332 153.472C95.2507 153.972 96.5986 154.472 98.2767 154.972L101.249 155.856C102.784 156.302 104.257 156.989 105.668 157.918C107.078 158.828 108.229 160.006 109.122 161.452C110.032 162.898 110.488 164.657 110.488 166.728C110.488 168.495 110.122 170.146 109.39 171.682C108.658 173.217 107.596 174.556 106.203 175.699C104.828 176.823 103.168 177.707 101.222 178.35C99.2943 178.992 97.1252 179.314 94.7152 179.314ZM123.957 179.314C121.779 179.314 119.94 178.849 118.441 177.921C116.941 176.993 115.799 175.672 115.013 173.958C114.246 172.226 113.862 170.164 113.862 167.772C113.862 166.344 114.013 164.791 114.317 163.113C114.62 161.435 115.111 159.765 115.79 158.105C116.468 156.427 117.37 154.901 118.494 153.526C119.619 152.134 120.985 151.027 122.591 150.205C124.216 149.366 126.117 148.947 128.295 148.947C130.795 148.947 132.776 149.518 134.24 150.661C135.722 151.803 136.704 153.374 137.186 155.374L136.356 155.454L137.587 149.67H146.585L142.193 170.396C142.086 170.968 142.086 171.36 142.193 171.575C142.3 171.771 142.622 171.869 143.157 171.869H144.898L143.479 178.591H139.864C137.418 178.591 135.65 177.93 134.561 176.609C133.49 175.27 133.196 173.387 133.678 170.959L133.865 170.048L134.99 171.976C133.937 174.458 132.437 176.306 130.491 177.519C128.545 178.716 126.367 179.314 123.957 179.314ZM127.947 172.244C129.233 172.244 130.33 171.896 131.241 171.2C132.169 170.486 132.919 169.584 133.49 168.495C134.062 167.406 134.481 166.264 134.749 165.068C135.017 163.871 135.151 162.791 135.151 161.827C135.151 159.917 134.713 158.462 133.838 157.462C132.982 156.463 131.875 155.963 130.518 155.963C129.268 155.963 128.197 156.338 127.304 157.088C126.412 157.837 125.68 158.784 125.109 159.926C124.555 161.069 124.145 162.256 123.877 163.488C123.627 164.719 123.502 165.817 123.502 166.781C123.502 168.531 123.886 169.879 124.653 170.825C125.439 171.771 126.537 172.244 127.947 172.244ZM141.684 189.034L143.104 182.313H147.254C147.647 182.313 147.924 182.206 148.085 181.991C148.263 181.795 148.406 181.456 148.513 180.974L156.091 144.903C156.538 142.708 157.377 141.083 158.608 140.03C159.858 138.959 161.563 138.423 163.723 138.423H171.596L170.177 145.144H166.053C165.66 145.144 165.374 145.243 165.196 145.439C165.035 145.635 164.901 145.983 164.794 146.483L157.216 182.554C156.77 184.75 155.931 186.374 154.699 187.427C153.467 188.499 151.762 189.034 149.584 189.034H141.684ZM150.173 156.391L151.592 149.67H168.918L167.499 156.391H150.173ZM181.906 179.314C179.246 179.314 176.871 178.814 174.783 177.814C172.712 176.796 171.087 175.315 169.909 173.369C168.749 171.405 168.168 169.04 168.168 166.273C168.168 164.112 168.534 162.006 169.266 159.953C170.016 157.9 171.105 156.043 172.533 154.383C173.979 152.723 175.738 151.402 177.809 150.42C179.897 149.438 182.272 148.947 184.932 148.947C187.609 148.947 189.841 149.438 191.626 150.42C193.411 151.384 194.786 152.687 195.75 154.329C196.714 155.954 197.285 157.775 197.464 159.792C197.66 161.792 197.491 163.845 196.955 165.951H174.033L175.05 161.024H189.886L188.975 162.336C189.118 161.408 189.118 160.399 188.975 159.31C188.832 158.203 188.44 157.257 187.797 156.472C187.172 155.686 186.19 155.293 184.851 155.293C183.494 155.293 182.343 155.713 181.397 156.552C180.451 157.391 179.692 158.444 179.121 159.712C178.549 160.979 178.13 162.274 177.862 163.595C177.612 164.898 177.487 166.023 177.487 166.969C177.487 168.665 177.889 170.022 178.692 171.039C179.496 172.039 180.71 172.539 182.334 172.539C183.494 172.539 184.548 172.235 185.494 171.628C186.44 171.021 187.306 169.977 188.091 168.495L196.098 170.691C194.652 173.619 192.688 175.788 190.207 177.198C187.743 178.608 184.976 179.314 181.906 179.314Z" fill="#0B1E24"/>
<rect x="38.8881" width="122.224" height="122.224" rx="11.0761" fill="#03DDA0"/>
<path d="M101.379 44.4083C96.4605 52.8166 90.1858 55.9347 87.6633 56.4427C87.7059 66.8688 87.7911 88.0342 87.7911 89.2873C90.1912 89.262 100.448 91.5105 101.813 91.839C102.904 92.1017 104.204 92.1674 104.718 92.1674H121.089C123.666 91.9147 123.565 88.3525 121.089 88.0746H110.908C108.331 87.7967 108.482 84.1839 110.908 83.6534H124.096C127.431 83.5018 127.405 77.8678 124.096 77.6152H113.283C111.262 77.312 110.832 73.7245 113.283 73.0676H126.445C129.502 72.8908 129.831 67.3579 126.445 67.1306H115.279C112.732 66.9689 112.803 62.8356 115.279 62.5498H127.244C131.209 62.3665 131.209 56.299 127.244 56.1765H107.286C105.651 56.1765 105.974 54.5422 106.179 54.2459C106.325 54.0357 106.517 53.8293 106.797 53.2986C109.864 45.856 110.548 41.786 110.999 39.4522C111.449 37.1184 109.975 34.7027 107.948 33.8839C105.922 33.065 105.123 33.9043 104.69 35.7373C104.112 38.5225 103.166 40.9399 101.379 44.4083Z" fill="white"/>
<path fill-rule="evenodd" clip-rule="evenodd" d="M100.871 32.6889C101.85 28.4506 107.653 28.5808 109.284 29.4936C110.914 30.4065 116.848 33.6021 115.414 40.3186C114.266 45.6919 112.979 50.0353 112.479 51.5353H126.825C128.26 51.5135 131.56 52.1089 133.282 54.665C135.433 57.8603 134.716 61.7078 133.803 63.4034C133.073 64.7596 132.195 65.4466 131.847 65.6206C132.325 66.2727 133.282 68.0075 133.282 69.729C133.282 71.8809 132.499 74.4243 130.021 76.0546C131.035 77.751 133.102 83.5422 126.902 87.2666C127.512 88.6624 128.032 92.1459 125.234 94.9172C124.325 95.7917 123.216 96.599 121.366 96.7336C119.886 96.8412 109.111 96.7784 103.909 96.7336C103.447 96.6741 102.295 96.5067 101.38 96.3113C100.236 96.0667 93.9809 93.8877 87.2258 94.0302L87.2159 94.043C86.617 94.8132 85.684 96.0129 84.2614 96.0316C83.116 96.0467 73.5426 96.0379 68.8987 96.0316C67.4508 96.0316 65.4758 94.5959 65.3065 92.508V53.6556C65.3068 52.2167 66.8587 50.5124 68.6643 50.4673H84.7185C85.7906 50.4673 86.7472 51.1522 87.1121 51.9263C90.6118 50.7524 98.263 45.2615 100.871 32.6889ZM107.948 33.8839C105.922 33.0651 105.123 33.9046 104.69 35.7374C104.112 38.5225 103.166 40.9402 101.379 44.4085C96.4603 52.8164 90.1858 55.9344 87.6632 56.4425C87.7058 66.8682 87.7908 88.0328 87.7908 89.2872C90.1908 89.2619 100.447 91.5099 101.812 91.8385C102.904 92.1013 104.204 92.1675 104.718 92.1675H121.089C123.666 91.9148 123.565 88.3527 121.089 88.0747H110.907C108.331 87.7967 108.482 84.1837 110.907 83.653H124.095C127.43 83.5014 127.405 77.8678 124.095 77.6151H113.282C111.261 77.312 110.832 73.7245 113.282 73.0676H126.445C129.502 72.8904 129.83 67.3583 126.445 67.1306H115.278C112.732 66.9687 112.803 62.8355 115.278 62.5494H127.244C131.209 62.3661 131.209 56.2987 127.244 56.1762H107.286C105.651 56.1762 105.973 54.5418 106.179 54.2456C106.325 54.0354 106.517 53.8288 106.797 53.2982C109.864 45.8557 110.548 41.7857 110.999 39.4519C111.449 37.1183 109.975 34.7028 107.948 33.8839Z" fill="#0B1E24"/>
<path d="M75.2394 34.0957C75.5543 33.5203 76.2766 33.3089 76.8521 33.6235L83.8037 37.4285C84.3791 37.7435 84.5906 38.4651 84.2759 39.0406C83.9608 39.6161 83.2381 39.8273 82.6626 39.5123L75.7116 35.7084C75.1363 35.3934 74.9247 34.6711 75.2394 34.0957Z" fill="#0B1E24"/>
<path d="M82.2861 27.223C82.8676 26.9194 83.5857 27.1446 83.8895 27.726L87.5582 34.7501C87.8619 35.3316 87.6367 36.0491 87.0553 36.3529C86.4737 36.6565 85.7556 36.4314 85.4518 35.85L81.7831 28.8265C81.4794 28.245 81.7048 27.5269 82.2861 27.223Z" fill="#0B1E24"/>
<path d="M91.9857 25.4368C92.6385 25.5021 93.1154 26.0846 93.0502 26.7374L92.2607 34.6224C92.1953 35.2752 91.6134 35.7516 90.9606 35.6864C90.3079 35.6209 89.8314 35.0385 89.8967 34.3857L90.6856 26.5013C90.751 25.8487 91.3331 25.3719 91.9857 25.4368Z" fill="#0B1E24"/>
</svg>
